<?xml version="1.0" encoding="UTF-8"?><svg id="Layer_1" xmlns="http://www.w3.org/2000/svg" width="600" height="599.999999999996362" viewBox="0 0 600 599.999999999996362"><defs><style>.cls-1{stroke:#e69f24;}.cls-1,.cls-2{fill:none;stroke-linecap:round;stroke-linejoin:round;stroke-width:14px;}.cls-2{stroke:#0cb2da;}</style></defs><g><path class="cls-2" d="M137.540253859720906,481.638415170697044V107.545783543511789c0-8.780360657816345,7.117888679158568-15.898249336969457,15.898249336969457-15.898249336969457H446.561496803309637c8.780360657819983,0,15.898249336971276,7.117888679153111,15.898249336971276,15.898249336969457V481.638415170697044"/><line class="cls-2" x1="86.725042038149695" y1="508.352465793457668" x2="513.274957961850305" y2="508.352465793457668"/></g><g><g><rect class="cls-1" x="183.673531172380535" y="136.958621233607118" width="54.788660611209707" height="54.788660611207888"/><rect class="cls-1" x="183.673531172380535" y="223.814501801803999" width="54.788660611209707" height="54.788660611207888"/><rect class="cls-1" x="183.673531172380535" y="310.670382369997242" width="54.788660611209707" height="54.788660611218802"/><rect class="cls-1" x="183.673531172380535" y="397.52626293819776" width="54.788660611209707" height="54.788660611209707"/></g><g><rect class="cls-1" x="272.605669694399694" y="136.958621233607118" width="54.788660611211526" height="54.788660611207888"/><rect class="cls-1" x="272.605669694399694" y="223.814501801803999" width="54.788660611211526" height="54.788660611207888"/><rect class="cls-1" x="272.605669694399694" y="310.670382369997242" width="54.788660611211526" height="54.788660611218802"/><polyline class="cls-2" points="272.605669694399694 481.638415170697044 272.605669694399694 397.52626293819776 327.39433030561122 397.52626293819776 327.39433030561122 481.638415170697044"/></g><g><rect class="cls-1" x="361.537808216409758" y="136.958621233607118" width="54.788660611211526" height="54.788660611207888"/><rect class="cls-1" x="361.537808216409758" y="223.814501801803999" width="54.788660611211526" height="54.788660611207888"/><rect class="cls-1" x="361.537808216409758" y="310.670382369997242" width="54.788660611211526" height="54.788660611218802"/><rect class="cls-1" x="361.537808216409758" y="397.52626293819776" width="54.788660611211526" height="54.788660611209707"/></g></g></svg>