<?xml version="1.0" encoding="UTF-8"?><svg id="Layer_1" xmlns="http://www.w3.org/2000/svg" width="600" height="599.999999999996362" viewBox="0 0 600 599.999999999996362"><defs><style>.cls-1{stroke:#e69f24;}.cls-1,.cls-2{fill:none;stroke-linecap:round;stroke-linejoin:round;stroke-width:14px;}.cls-2{stroke:#0cb2da;}</style></defs><polyline class="cls-2" points="253.421954943160017 470.800975458216271 253.421954943160017 212.141678299172781 465.769579168259952 212.141678299172781 465.769579168259952 382.30381584371753"/><polyline class="cls-1" points="253.946531928710101 188.916893762596374 253.946531928710101 57.173190329383942 161.045641052269275 113.13845520353243 161.045641052269275 261.318039516310819 95.915041551710601 261.318039516310819 95.915041551710601 470.800975458216271"/><polyline class="cls-2" points="271.820619760339468 118.261385796669856 424.678927284039673 118.261385796669856 424.678927284039673 192.635091275002196"/><circle class="cls-1" cx="461.350557623597069" cy="472.454031970731648" r="68.858484336931269"/><g><g><rect class="cls-1" x="124.697087082598955" y="293.74185961863077" width="37.907253290040899" height="33.821013977845723"/><rect class="cls-1" x="124.697087082598955" y="347.357953131137037" width="37.907253290040899" height="33.821013977840266"/><rect class="cls-1" x="124.697087082598955" y="400.974046643626934" width="37.907253290040899" height="33.821013977860275"/></g><rect class="cls-1" x="187.45272646011108" y="293.74185961863077" width="37.907253290028166" height="33.821013977845723"/><rect class="cls-1" x="187.45272646011108" y="347.357953131137037" width="37.907253290028166" height="33.821013977840266"/><rect class="cls-1" x="187.45272646011108" y="400.974046643626934" width="37.907253290028166" height="33.821013977860275"/><g><rect class="cls-1" x="187.45272646011108" y="132.044647970769802" width="37.907253290028166" height="33.821013977847542"/><rect class="cls-1" x="187.45272646011108" y="185.660741483272432" width="37.907253290028166" height="33.821013977845723"/><rect class="cls-1" x="187.45272646011108" y="239.276834995769605" width="37.907253290028166" height="33.82101397785118"/></g></g><g><g><rect class="cls-2" x="283.674754932499127" y="240.12576610612814" width="37.907253290031804" height="33.821013977847542"/><rect class="cls-2" x="283.674754932499127" y="293.74185961863077" width="37.907253290031804" height="33.821013977845723"/><rect class="cls-2" x="283.674754932499127" y="347.357953131126123" width="37.907253290031804" height="33.82101397785118"/></g><g><rect class="cls-2" x="343.813522727739837" y="240.12576610612814" width="37.907253290040899" height="33.821013977847542"/><rect class="cls-2" x="343.813522727739837" y="293.74185961863077" width="37.907253290040899" height="33.821013977845723"/><rect class="cls-2" x="343.813522727739837" y="347.357953131126123" width="37.907253290040899" height="33.82101397785118"/></g><g><rect class="cls-2" x="403.952290522980547" y="240.12576610612814" width="37.90725329003908" height="33.821013977847542"/><rect class="cls-2" x="403.952290522980547" y="293.74185961863077" width="37.90725329003908" height="33.821013977845723"/><rect class="cls-2" x="403.952290522980547" y="347.357953131126123" width="37.90725329003908" height="33.82101397785118"/></g></g><line class="cls-2" x1="69.258361571321075" y1="489.323834774337229" x2="375.587522615540365" y2="489.323834774337229"/><polyline class="cls-2" points="283.796743144319407 470.800975458216271 283.796743144319407 403.974046643626934 333.919021518140653 403.974046643626934 333.919021518140653 470.800975458216271"/><g><path class="cls-1" d="M441.013204274240707,451.337332882407281c0-12.220142591600961,11.167088221218364-21.877711491770242,24.02337851809898-19.660783557890682,8.17974993443022,1.410287969480123,14.89180410544941,8.004063530599524,16.327266238349694,16.039961102060261,1.450513373591093,8.119012389459385-2.094253606348502,15.552460727269136-8.115682263849521,19.826879997059223-7.108714302010412,5.045229288620249-11.897805977649114,12.626526100750198-11.897805977649114,21.241829855360265v2.511426111121182"/><line class="cls-1" x1="461.312090213319607" y1="510.117614075486927" x2="461.257836188040528" y2="513.929266242907033"/></g></svg>