<?xml version="1.0" encoding="UTF-8"?><svg id="Layer_1" xmlns="http://www.w3.org/2000/svg" width="599.999999999998181" height="600.000000000000909" viewBox="0 0 599.999999999998181 600.000000000000909"><defs><style>.cls-1{stroke:#e69f24;}.cls-1,.cls-2{fill:none;stroke-linecap:round;stroke-linejoin:round;stroke-width:14px;}.cls-2{stroke:#0cb2da;}</style></defs><g><path class="cls-1" d="M441.536881770578475,543.921390508644436H158.463118229423344c-4.689154841058553,0-8.490465910013882-3.801311068955329-8.490465910013882-8.490465910013882v-44.902847073748489l53.386407510879508-168.33319221189231c1.118646281587644-3.527214291339988,4.392846796570666-5.923730014868852,8.093199504131917-5.923730014868852h177.720187130258637c3.710930565468516,0,6.991921912949692,2.410001701251531,8.101818255079706,5.951065915787694l52.753082960829488,168.305856310973468v44.902847073748489c0,4.689154841058553-3.801311068949872,8.490465910013882-8.490465910010244,8.490465910013882Z"/><line class="cls-1" x1="152.075446394077517" y1="490.528077524882065" x2="447.924553605918845" y2="490.528077524882065"/></g><g><path class="cls-2" d="M136.80072276271494,452.706136447829522c-42.416716548503246-42.022940681519685-68.690063944441135-100.312328687557965-68.690063944441135-164.738185774745943,0-128.068946775837503,103.82039440589142-231.889341181727104,231.889341181726195-231.889341181727104,128.068946775838413,0,231.889341181728014,103.820394405889601,231.889341181728014,231.889341181727104,0,64.605216195679532-26.419839003498055,123.039748362007231-69.044698603538563,165.088778092025677"/><path class="cls-2" d="M172.328273855489897,345.751924953615344c-8.728683263654602-18.361046999496466-13.613172582967309-38.90322298125102-13.613172582967309-60.586232570289212,0-78.029494944224098,63.255403783252405-141.284898727477412,141.284898727477412-141.284898727477412,78.029494944228645,0,141.284898727479231,63.255403783253314,141.284898727479231,141.284898727477412,0,21.739550830010558-4.909996402870092,42.332310554165815-13.681534481369454,60.729824445224949"/><path class="cls-2" d="M192.921222096596466,299.034704327724285c-.637707392403172-4.748464693863752-.966971264737367-9.594653437934539-.966971264737367-14.51774587995078,0-59.672019546280353,48.373729621858729-108.045749168141811,108.045749168140901-108.045749168141811,59.672019546278534,0,108.045749168148177,48.373729621861457,108.045749168148177,108.045749168141811,0,4.354257766953197-.257570647909233,8.648356685726867-.758306836140036,12.867891648725163"/><line class="cls-2" x1="442.319718457049021" y1="297.751752440376549" x2="528.631582655869352" y2="297.751752440376549"/><line class="cls-2" x1="70.368417344137924" y1="297.751752440376549" x2="158.139335661722725" y2="297.751752440376549"/><line class="cls-2" x1="102.569954730559402" y1="244.975116562990479" x2="131.079554430216376" y2="244.975116562990479"/><line class="cls-2" x1="108.632854718043745" y1="349.670765330335598" x2="137.142454417700719" y2="349.670765330335598"/><circle class="cls-2" cx="465.036518292426535" cy="202.916614316509367" r="13.837438521736884"/><circle class="cls-2" cx="481.061750807136832" cy="254.015940636997584" r="13.837438521736884"/><path class="cls-2" d="M357.012163609238996,66.511840474230667v30.097915825812379c0,6.225447630601593-5.046722445629712,11.272170076232214-11.272170076230395,11.272170076232214h-96.384811686713874c-6.225447630602503,0-11.272170076232214-5.046722445630621-11.272170076232214-11.272170076232214v-30.097915825812379"/></g></svg>