<?xml version="1.0" encoding="UTF-8"?><svg id="Layer_1" xmlns="http://www.w3.org/2000/svg" width="600" height="600.000000000000909" viewBox="0 0 600 600.000000000000909"><defs><style>.cls-1{stroke:#e69f24;}.cls-1,.cls-2{fill:none;stroke-linecap:round;stroke-linejoin:round;stroke-width:14px;}.cls-2{stroke:#0cb2da;}</style></defs><g><path class="cls-1" d="M326.427939972187232,360.890184511815278S158.702925105271788,193.165164973105675,158.692046069088974,193.154285936645465l-32.63710854663168-10.879036457039547-43.516144728837389-65.274218742224548,32.637108546629861-32.637109371107726,65.274217093258812,43.516145828147273,10.879036182209347,32.637109371109545c.010879036180995,.01087903646021,168.698426460456176,168.698431132529549,168.698426460456176,168.698431132529549"/><path class="cls-1" d="M460.570045418109657,505.911328758679701l-116.342160795404197-116.34216570998251c-.028604684221136-.02906622714363-2.97006238062022,2.903654152050876-6.347677645331714,6.290325688598386-5.512093659803213,5.526873027691181-14.464690389519092,5.534414313086018-19.9841786801735,.014926022675354l-.000020936600777-.000020936597139c-5.514381151508132-5.51438115126075-5.514381257551577-14.454959461501858-.000000236854248-19.969340743573412l56.183911922478728-56.183914585530147c5.514381205342943-5.514381466717168,14.454959880233218-5.514381572760612,19.969341216386965-.000000236854248l.00001999799133,.00001999799133c5.519488290334266,5.519488290086883,5.511947008151765,14.472085019744554-.014926020005078,19.984178678434546-3.386671965159621,3.377615691213578-6.319392837216583,6.319073878588824-6.290326609927433,6.347678565831302l116.342161767992366,116.34216668256704c13.527531667616131,13.527532346321095,14.751997658488108,34.234177128517331,2.735014498259261,46.251161005606264h0c-12.015826881266548,12.017052252449503-32.723626811191934,10.792517917154328-46.251158478811703-2.735014429166768Z"/></g><line class="cls-2" x1="107.136978259641182" y1="492.862482660672867" x2="122.52211122852259" y2="477.47734930313618"/><path class="cls-2" d="M352.796494290118062,293.359448400579822l49.905402678650717-49.904316035721422c3.037426902075822-3.038514882453455,7.53046884532705-3.865321653189312,11.589481816705302-2.455398528352816,29.846591194098437,10.363370128969109,61.672123641530561,6.120545910722285,85.718057315069018-17.925388370265864,20.932353518190212-20.933441950624911,28.973049160464143-49.873854733639746,24.122086926816337-76.959391800724916-1.538295716165521-8.587911379181605-12.272640717152171-11.798315037656721-18.442142136082111-5.629901366515696l-36.450210728491584,36.436068901904946c-4.249351532775108,4.246087929181158-11.135781436110847,4.247175832828361-15.384045065264218-.001087903638108l-30.774617552235213-30.774618329669465c-4.248263629153371-4.248263736477384-4.247175725535271-11.133605910134065-.001087903621737-15.384045453896761l36.437155885078027-36.449123745662291c6.168413515313659-6.170589478424517,2.958055726950988-16.904934750587927-5.630989127912471-18.443230505617976-27.085536382848659-4.850962356187665-56.025948434760721,3.189733489205537-76.959389856569032,24.122087536194158-24.045933673538457,24.047022184633533-28.28875778460133,55.871467532402676-17.925387917426633,85.718104052290073,1.409923089213407,4.058968502116841,.583116339366825,8.550922655231261-2.455355353304185,11.589437537684717l-49.904357888055529,49.90540393935953"/><path class="cls-2" d="M244.34875036151243,309.495307169684565L84.059278806318616,469.784782624349646c-12.745878791076393,12.745879113062983-12.746966694694493,33.409520959561632,0,46.155400072624616,12.746966694696312,12.746967016715644,33.41060801918502,12.745879113077535,46.155398906643313,0l160.525300318546215-160.524216291483754"/></svg>