<?xml version="1.0" encoding="UTF-8"?><svg id="Layer_1" xmlns="http://www.w3.org/2000/svg" width="600" height="599.999999999996362" viewBox="0 0 600 599.999999999996362"><defs><style>.cls-1{stroke:#e69f24;}.cls-1,.cls-2{fill:none;stroke-linecap:round;stroke-linejoin:round;stroke-width:14px;}.cls-2{stroke:#0cb2da;}</style></defs><polyline class="cls-2" points="519.648031457309116 500.955053085086547 80.351968542699979 500.955053085086547 80.351968542699979 99.044946914911634"/><g><g><line class="cls-2" x1="112.371601794189701" y1="439.742773891226534" x2="85.709483153519614" y2="439.742773891226534"/><line class="cls-2" x1="112.371601794189701" y1="370.490959330836631" x2="85.709483153519614" y2="370.490959330836631"/><line class="cls-2" x1="112.371601794189701" y1="301.239144770437633" x2="85.709483153519614" y2="301.239144770437633"/></g><g><line class="cls-2" x1="112.371601794189701" y1="231.391930376017626" x2="85.709483153519614" y2="231.391930376017626"/><line class="cls-2" x1="112.371601794189701" y1="162.140115815622266" x2="85.709483153519614" y2="162.140115815622266"/></g></g><rect class="cls-1" x="146.543610123976578" y="113.038722093976702" width="197.623025800625328" height="30.890264785258353" rx="15.445117013013892" ry="15.445117013013892"/><rect class="cls-1" x="271.245764713811582" y="182.020454390825535" width="138.518268108463644" height="30.890264844862941" rx="15.445116970233808" ry="15.445116970233808"/><rect class="cls-1" x="371.559297748722088" y="251.002186716938525" width="148.088692039543503" height="30.890264874665149" rx="15.445116918028637" ry="15.445116918028637"/><rect class="cls-1" x="175.98931237074089" y="319.983919102441632" width="148.088692153230568" height="30.890264785256534" rx="15.445117020725837" ry="15.445117020725837"/><rect class="cls-1" x="234.958946462193126" y="388.965651429093668" width="182.262028444378302" height="30.890264785255567" rx="15.445116931053461" ry="15.445116931053461"/><g><g><line class="cls-2" x1="412.644572952649469" y1="469.907047877026343" x2="412.644572951448936" y2="496.569166517696431"/><line class="cls-2" x1="343.392758392259566" y1="469.907047873915872" x2="343.392758391059033" y2="496.569166514585959"/><line class="cls-2" x1="274.140943831860568" y1="469.907047870816314" x2="274.14094383066913" y2="496.569166511477306"/><line class="cls-2" x1="484.644572952649469" y1="469.907047877026343" x2="484.644572951448936" y2="496.569166517696431"/></g><g><line class="cls-2" x1="204.293729437440561" y1="469.907047867676738" x2="204.293729436249123" y2="496.569166508346825"/><line class="cls-2" x1="135.041914877048839" y1="469.907047864566266" x2="135.041914875850125" y2="496.569166505236353"/></g></g></svg>